<?xml version="1.0" encoding="utf-8"?>
<!-- Generator: Adobe Illustrator 24.3.0, SVG Export Plug-In . SVG Version: 6.00 Build 0)  -->
<svg version="1.1" id="Capa_1" xmlns="http://www.w3.org/2000/svg" xmlns:xlink="http://www.w3.org/1999/xlink" x="0px" y="0px"
	 viewBox="0 0 352.1 336.2" style="enable-background:new 0 0 352.1 336.2;" xml:space="preserve">
<style type="text/css">
	.st0{fill:#3D605D;}
</style>
<g>
	<g>
		<path class="st0" d="M25.6,300.6h-6.7v-4.2h17.8v4.2H30v22h-4.4V300.6z"/>
		<path class="st0" d="M42.5,296.4h8.4c5,0,8.5,2.8,8.5,7.5c0,3.8-2.3,5.9-5.1,6.7c3.2,1.6,5.6,6.1,6.3,12H56
			c-1-6.1-3.8-10.4-7.1-10.4h-2v10.4h-4.4V296.4z M50.8,300.6h-4v7.4h4c2.3,0,3.9-1.3,3.9-3.7C54.8,302,53.1,300.6,50.8,300.6z"/>
		<path class="st0" d="M78.4,296c7.7,0,13.5,5.9,13.5,13.5s-5.8,13.5-13.5,13.5s-13.5-5.9-13.5-13.5S70.8,296,78.4,296z M78.4,318.7
			c5.1,0,9-4.1,9-9.1s-3.9-9.1-9-9.1c-5.1,0-9,4.1-9,9.1S73.3,318.7,78.4,318.7z"/>
		<path class="st0" d="M116.7,321.5c-1.9,1-4.1,1.6-6.4,1.6c-7.7,0-13.5-5.9-13.5-13.5s5.8-13.5,13.5-13.5c2.4,0,4.6,0.6,6.4,1.6
			v5.1c-1.6-1.4-3.9-2.3-6.4-2.3c-5.1,0-9,4.1-9,9.1s3.9,9.1,9,9.1c2.5,0,4.9-0.9,6.4-2.3V321.5z"/>
		<path class="st0" d="M137.8,316.2h-10l-2.4,6.5h-4.9l9.8-26.2h4.9l9.8,26.2h-4.9L137.8,316.2z M129.2,312h7.1l-3.6-9.8L129.2,312z
			"/>
		<path class="st0" d="M159.8,296.4h9.5c7.9,0,12.9,5.4,12.9,13.1s-5,13.1-12.9,13.1h-9.5V296.4z M164.2,300.6v17.8h5
			c5.3,0,8.4-3.8,8.4-8.9s-3.1-8.9-8.4-8.9H164.2z"/>
		<path class="st0" d="M188.8,322.7v-26.2h14.5v4.2h-10.1v6.7h9.3v4.2h-9.3v6.9h10.1v4.2H188.8z"/>
		<path class="st0" d="M239.5,321.5c-1.9,1-4.1,1.6-6.4,1.6c-7.7,0-13.5-5.9-13.5-13.5s5.8-13.5,13.5-13.5c2.4,0,4.6,0.6,6.4,1.6
			v5.1c-1.6-1.4-3.9-2.3-6.4-2.3c-5.1,0-9,4.1-9,9.1s3.9,9.1,9,9.1c2.5,0,4.9-0.9,6.4-2.3V321.5z"/>
		<path class="st0" d="M260.6,316.2h-10l-2.4,6.5h-4.9l9.8-26.2h4.9l9.8,26.2H263L260.6,316.2z M252,312h7.1l-3.6-9.8L252,312z"/>
		<path class="st0" d="M286,302.1c-1.4-1.1-3.6-2-5.7-2c-2.5,0-3.9,1.2-3.9,3c0,1.1,0.7,2,2.2,2.9l4,2.5c3.4,2,4.6,4.1,4.6,7
			c0,3.9-2.8,7.5-8.6,7.5c-2.7,0-5-0.7-6.6-1.5v-4.9c1.4,1.1,3.8,2.3,6.4,2.3c2.7,0,4.1-1.4,4.1-3.1c0-1.2-0.7-2.2-2.4-3.2l-4.1-2.5
			c-3.2-1.9-4.3-4-4.3-6.8c0-3.5,2.3-7.3,8.7-7.3c2.1,0,4.1,0.6,5.6,1.3V302.1z"/>
		<path class="st0" d="M307.7,316.2h-10l-2.4,6.5h-4.9l9.8-26.2h4.9l9.8,26.2h-4.9L307.7,316.2z M299.2,312h7.1l-3.6-9.8L299.2,312z
			"/>
		<path class="st0" d="M333.2,302.1c-1.4-1.1-3.6-2-5.7-2c-2.5,0-3.9,1.2-3.9,3c0,1.1,0.7,2,2.2,2.9l4,2.5c3.4,2,4.6,4.1,4.6,7
			c0,3.9-2.8,7.5-8.6,7.5c-2.7,0-5-0.7-6.6-1.5v-4.9c1.4,1.1,3.8,2.3,6.4,2.3c2.7,0,4.1-1.4,4.1-3.1c0-1.2-0.7-2.2-2.4-3.2l-4.1-2.5
			c-3.2-1.9-4.3-4-4.3-6.8c0-3.5,2.3-7.3,8.7-7.3c2.1,0,4.1,0.6,5.6,1.3V302.1z"/>
	</g>
	<g>
		<g>
			<path class="st0" d="M68,177.1L19.4,95.2c-4.5-7.5,1-17,9.7-17h0c4,0,7.7,2.1,9.7,5.6L76,147.9c2.3,3.9,7.9,3.9,10.2,0l37.5-64.2
				c2-3.5,5.7-5.6,9.7-5.6h0.2c8.7,0,14.1,9.5,9.7,17l-49.1,82.1c-1,1.7-1.6,3.7-1.6,5.8v66c0,6.2-5,11.3-11.3,11.3h-0.5
				c-6.2,0-11.3-5-11.3-11.3v-66.3C69.6,180.8,69,178.8,68,177.1z"/>
			<g>
				<path class="st0" d="M210.1,103.7c25.6-10.7,52.5-5.6,71.7,10.8c3.4,2.9,8.1,3.5,12.2,1.8l0,0c8.2-3.4,9.9-14.4,3.1-20.1
					c-25.7-21.6-61.6-27.7-95.8-13.4c-34.2,14.3-55.1,44.1-57.8,77.5c-0.7,8.9,8.2,15.4,16.5,12l0.3-0.1c4.1-1.7,6.9-5.5,7.3-9.9
					C169.4,137.1,184.7,114.3,210.1,103.7z"/>
				<path class="st0" d="M264.8,234.8c-25.4,10.6-52.2,5.6-71.4-10.7c-3.4-2.9-8.2-3.6-12.3-1.9l-0.2,0.1
					c-8.2,3.4-9.9,14.4-3.1,20.1c25.7,21.6,61.6,27.7,95.8,13.4c34.2-14.3,55.1-44.1,57.8-77.5c0.7-8.9-8.2-15.4-16.5-12l0,0
					c-4.1,1.7-6.9,5.6-7.3,10.1C305.7,201.5,290.3,224.2,264.8,234.8z"/>
			</g>
			<circle class="st0" cx="314" cy="137.7" r="10.4"/>
			<circle class="st0" cx="163.8" cy="200.4" r="10.4"/>
		</g>
		<g>
			<path class="st0" d="M270.7,65.9c-3,0-6-1.1-8.3-3.4L244,44c-4-4-10.4-4-14.4,0l-18.1,18.1c-4,4-10.3,5-15,1.8
				c-6.4-4.2-7-12.9-1.9-18.1l25.8-25.8c3.3-3.3,7.4-5.7,11.9-6.6c7.6-1.4,15,0.9,20.3,6.2l25.9,25.9c3.8,3.8,4.8,10.9,1.6,15.3
				C277.9,64.2,274.3,65.9,270.7,65.9z"/>
		</g>
	</g>
</g>
</svg>
