<?xml version="1.0" encoding="utf-8"?>
<!-- Generator: Adobe Illustrator 25.4.0, SVG Export Plug-In . SVG Version: 6.00 Build 0)  -->
<svg version="1.1" id="Capa_1" xmlns="http://www.w3.org/2000/svg" xmlns:xlink="http://www.w3.org/1999/xlink" x="0px" y="0px"
	 viewBox="0 0 74.8 74.8" style="enable-background:new 0 0 74.8 74.8;" xml:space="preserve">
<style type="text/css">
	.st0{fill:#455F5D;}
</style>
<g>
	<path class="st0" d="M59.7,3.5H15.1C8.7,3.5,3.5,8.7,3.5,15.1v44.6c0,6.4,5.2,11.6,11.6,11.6h44.6c6.4,0,11.6-5.2,11.6-11.6V15.1
		C71.3,8.7,66.1,3.5,59.7,3.5z M69.3,59.7c0,5.3-4.3,9.6-9.6,9.6H15.1c-5.3,0-9.6-4.3-9.6-9.6V15.1c0-5.3,4.3-9.6,9.6-9.6h44.6
		c5.3,0,9.6,4.3,9.6,9.6V59.7z"/>
	<path class="st0" d="M37.4,18.3c-10.5,0-19.1,8.5-19.1,19.1s8.5,19.1,19.1,19.1s19.1-8.5,19.1-19.1l0,0
		C56.4,26.9,47.9,18.4,37.4,18.3z M37.4,54.5c-9.4,0-17.1-7.6-17.1-17.1S28,20.3,37.4,20.3S54.5,28,54.5,37.4v0
		C54.5,46.8,46.8,54.4,37.4,54.5L37.4,54.5z"/>
	<path class="st0" d="M57.6,12c-2.9,0-5.2,2.4-5.2,5.3s2.4,5.2,5.3,5.2c2.9,0,5.2-2.4,5.2-5.2C62.9,14.3,60.5,11.9,57.6,12L57.6,12z
		 M57.6,20.5c-1.8,0-3.3-1.5-3.2-3.3c0-1.8,1.5-3.3,3.3-3.2c1.8,0,3.2,1.5,3.2,3.3C60.9,19,59.4,20.5,57.6,20.5L57.6,20.5z"/>
	<path class="st0" d="M29.1,29.1c4-4.1,10.5-4.6,15.1-1.3c0.4,0.4,1,0.3,1.4-0.1s0.3-1-0.1-1.4c-0.1,0-0.1-0.1-0.2-0.1
		c-6.2-4.4-14.8-3-19.1,3.2c-3.4,4.8-3.4,11.2,0,15.9c0.2,0.3,0.5,0.4,0.8,0.4c0.2,0,0.4-0.1,0.6-0.2c0.5-0.3,0.6-0.9,0.3-1.4
		C24.5,39.5,25.1,33.1,29.1,29.1L29.1,29.1z"/>
	<path class="st0" d="M47.2,29.2c-0.5,0.3-0.5,0.9-0.2,1.4c3.8,5.3,2.6,12.6-2.7,16.4c-4.1,2.9-9.6,2.9-13.7,0
		c-0.5-0.3-1.1-0.2-1.4,0.2c-0.3,0.5-0.2,1.1,0.2,1.4c2.3,1.7,5.1,2.5,8,2.5c0.3,0,0.7,0,1.1,0c7.6-0.6,13.2-7.2,12.6-14.8
		c-0.2-2.5-1.1-4.9-2.5-6.9C48.3,29,47.7,28.9,47.2,29.2C47.2,29.2,47.2,29.2,47.2,29.2z"/>
</g>
</svg>
